<svg width="25" height="25" viewBox="0 0 25 25" fill="none" xmlns="http://www.w3.org/2000/svg">
<mask id="mask0_110_7" style="mask-type:alpha" maskUnits="userSpaceOnUse" x="0" y="0" width="25" height="25">
<rect x="0.407654" y="0.337524" width="24" height="24" fill="#D9D9D9"/>
</mask>
<g mask="url(#mask0_110_7)">
<path d="M2.40765 10.3375C2.40765 8.67081 2.77849 7.14164 3.52015 5.74998C4.26182 4.35831 5.25765 3.20414 6.50765 2.28748L7.68265 3.88748C6.68265 4.62081 5.88682 5.54581 5.29515 6.66248C4.70349 7.77914 4.40765 9.00414 4.40765 10.3375H2.40765ZM20.4077 10.3375C20.4077 9.00414 20.1118 7.77914 19.5202 6.66248C18.9285 5.54581 18.1327 4.62081 17.1327 3.88748L18.3077 2.28748C19.5577 3.20414 20.5535 4.35831 21.2952 5.74998C22.0368 7.14164 22.4077 8.67081 22.4077 10.3375H20.4077ZM4.40765 19.3375V17.3375H6.40765V10.3375C6.40765 8.95414 6.82432 7.72498 7.65765 6.64998C8.49099 5.57498 9.57432 4.87081 10.9077 4.53748V3.83748C10.9077 3.42081 11.0535 3.06664 11.3452 2.77498C11.6368 2.48331 11.991 2.33748 12.4077 2.33748C12.8243 2.33748 13.1785 2.48331 13.4702 2.77498C13.7618 3.06664 13.9077 3.42081 13.9077 3.83748V4.53748C15.241 4.87081 16.3243 5.57498 17.1577 6.64998C17.991 7.72498 18.4077 8.95414 18.4077 10.3375V17.3375H20.4077V19.3375H4.40765ZM12.4077 22.3375C11.8577 22.3375 11.3868 22.1416 10.9952 21.75C10.6035 21.3583 10.4077 20.8875 10.4077 20.3375H14.4077C14.4077 20.8875 14.2118 21.3583 13.8202 21.75C13.4285 22.1416 12.9577 22.3375 12.4077 22.3375ZM8.40765 17.3375H16.4077V10.3375C16.4077 9.23748 16.016 8.29581 15.2327 7.51248C14.4493 6.72914 13.5077 6.33748 12.4077 6.33748C11.3077 6.33748 10.366 6.72914 9.58265 7.51248C8.79932 8.29581 8.40765 9.23748 8.40765 10.3375V17.3375Z" fill="#D30B0B"/>
</g>
</svg>
